<svg width="637" height="141" viewBox="0 0 637 141" fill="none" xmlns="http://www.w3.org/2000/svg">
<g clip-path="url(#clip0_122_6)">
<path d="M100.2 30L53.1 6.5C51.9 5.9 50.6 5.9 49.4 6.5L2.3 30C0.9 30.7 0 32.2 0 33.7C0 35.3 0.9 36.7 2.3 37.4L49.4 61C50 61.3 50.6 61.4 51.3 61.4C51.9 61.4 52.6 61.3 53.2 61L100.3 37.5C101.7 36.8 102.6 35.4 102.6 33.8C102.5 32.2 101.6 30.7 100.2 30ZM51.2 52.7L13.4 33.7L51.2 14.8L89 33.7L51.2 52.7Z" fill="url(#paint0_linear_122_6)"/>
<path d="M102 79C101 77 98.5002 76.1 96.4002 77.1L51.2002 99.8L6.00022 77.1C4.00022 76.1 1.50022 76.9 0.400224 79C-0.599776 81 0.200224 83.5 2.30022 84.6L49.4002 108.1C50.0002 108.4 50.6002 108.5 51.3002 108.5C51.9002 108.5 52.6002 108.4 53.2002 108.1L100.3 84.6C102.2 83.5 103 81 102 79Z" fill="url(#paint1_linear_122_6)"/>
<path d="M102 55.4C101 53.4 98.5002 52.5 96.4002 53.5L51.2002 76.2L6.00022 53.6C4.00022 52.6 1.50022 53.4 0.400224 55.5C-0.599776 57.5 0.200224 60 2.30022 61.1L49.4002 84.6C50.0002 84.9 50.6002 85 51.3002 85C51.9002 85 52.6002 84.9 53.2002 84.6L100.2 61C102.2 60 103 57.5 102 55.4Z" fill="url(#paint2_linear_122_6)"/>
<path d="M226.943 111H190.849V9.18182H227.241C237.483 9.18182 246.299 11.2202 253.69 15.2969C261.081 19.3404 266.766 25.1572 270.743 32.7472C274.753 40.3371 276.759 49.4186 276.759 59.9915C276.759 70.5975 274.753 79.7121 270.743 87.3352C266.766 94.9583 261.048 100.808 253.591 104.885C246.167 108.962 237.284 111 226.943 111ZM212.376 92.5554H226.048C232.412 92.5554 237.765 91.4285 242.107 89.1747C246.482 86.8878 249.763 83.358 251.95 78.5852C254.171 73.7794 255.281 67.5814 255.281 59.9915C255.281 52.4678 254.171 46.3196 251.95 41.5469C249.763 36.7741 246.498 33.2609 242.156 31.0071C237.814 28.7533 232.462 27.6264 226.098 27.6264H212.376V92.5554ZM292.705 111V9.18182H333.472C340.962 9.18182 347.21 10.2921 352.215 12.5128C357.22 14.7334 360.981 17.8158 363.5 21.7599C366.019 25.6709 367.279 30.1785 367.279 35.2827C367.279 39.2599 366.483 42.7566 364.892 45.7727C363.301 48.7557 361.114 51.2083 358.33 53.1307C355.579 55.0199 352.43 56.3622 348.884 57.1577V58.152C352.762 58.3177 356.391 59.4115 359.772 61.4332C363.185 63.455 365.953 66.2888 368.074 69.9347C370.195 73.5473 371.256 77.8561 371.256 82.8608C371.256 88.2633 369.914 93.0857 367.229 97.3281C364.578 101.537 360.65 104.868 355.446 107.321C350.243 109.774 343.829 111 336.206 111H292.705ZM314.232 93.4006H331.782C337.781 93.4006 342.156 92.2571 344.907 89.9702C347.658 87.6501 349.033 84.5677 349.033 80.723C349.033 77.9058 348.354 75.42 346.995 73.2656C345.636 71.1113 343.697 69.4209 341.178 68.1946C338.692 66.9683 335.726 66.3551 332.279 66.3551H314.232V93.4006ZM314.232 51.7884H330.191C333.141 51.7884 335.759 51.2746 338.046 50.2472C340.366 49.1866 342.189 47.6951 343.515 45.7727C344.873 43.8504 345.553 41.5469 345.553 38.8622C345.553 35.1832 344.244 32.2169 341.625 29.9631C339.04 27.7093 335.361 26.5824 330.588 26.5824H314.232V51.7884ZM417.666 111V9.18182H439.193V54.0753H440.535L477.176 9.18182H502.978L465.194 54.7713L503.426 111H477.673L449.782 69.1392L439.193 82.0653V111H417.666ZM514.189 111V9.18182H554.36C562.082 9.18182 568.661 10.6567 574.097 13.6065C579.533 16.5232 583.676 20.5833 586.526 25.7869C589.409 30.9574 590.851 36.9233 590.851 43.6847C590.851 50.446 589.393 56.4119 586.476 61.5824C583.56 66.7528 579.334 70.7798 573.799 73.6634C568.297 76.5469 561.635 77.9886 553.813 77.9886H528.209V60.7372H550.333C554.476 60.7372 557.89 60.0246 560.574 58.5994C563.292 57.1411 565.314 55.1359 566.64 52.5838C567.998 49.9986 568.678 47.0322 568.678 43.6847C568.678 40.304 567.998 37.3542 566.64 34.8352C565.314 32.2831 563.292 30.3111 560.574 28.919C557.856 27.4938 554.409 26.7812 550.233 26.7812H535.716V111H514.189ZM626.361 9.18182V111H604.834V9.18182H626.361Z" fill="url(#paint3_linear_122_6)"/>
</g>
<defs>
<linearGradient id="paint0_linear_122_6" x1="-14.647" y1="33.7483" x2="656.557" y2="33.7483" gradientUnits="userSpaceOnUse">
<stop offset="0.0015024" stop-color="#DA8CFF"/>
<stop offset="1" stop-color="#9A55FF"/>
</linearGradient>
<linearGradient id="paint1_linear_122_6" x1="-14.6468" y1="92.6076" x2="656.557" y2="92.6076" gradientUnits="userSpaceOnUse">
<stop offset="0.0015024" stop-color="#DA8CFF"/>
<stop offset="1" stop-color="#9A55FF"/>
</linearGradient>
<linearGradient id="paint2_linear_122_6" x1="-14.6468" y1="69.0637" x2="656.557" y2="69.0637" gradientUnits="userSpaceOnUse">
<stop offset="0.0015024" stop-color="#DA8CFF"/>
<stop offset="1" stop-color="#9A55FF"/>
</linearGradient>
<linearGradient id="paint3_linear_122_6" x1="606" y1="59" x2="247" y2="138" gradientUnits="userSpaceOnUse">
<stop stop-color="#A65FFF"/>
<stop offset="0.9999" stop-color="#C378FF"/>
</linearGradient>
<clipPath id="clip0_122_6">
<rect width="636.1" height="140.4" fill="white"/>
</clipPath>
</defs>
</svg>
