<?xml version="1.0" encoding="utf-8"?>
<!-- Generator: Adobe Illustrator 27.9.0, SVG Export Plug-In . SVG Version: 6.00 Build 0)  -->
<svg version="1.1" id="Layer_1" xmlns="http://www.w3.org/2000/svg" xmlns:xlink="http://www.w3.org/1999/xlink" x="0px" y="0px"
	 viewBox="0 0 1167 1080" style="enable-background:new 0 0 1167 1080;" xml:space="preserve">
<style type="text/css">
	.st0{clip-path:url(#SVGID_00000160187169056506858840000008198932179169190561_);}
	.st1{clip-path:url(#SVGID_00000173871448559858976560000000481486638335493508_);fill:#062C4C;}
	.st2{clip-path:url(#SVGID_00000031907328386240430620000017905236859520898480_);fill:#E6002F;}
	.st3{clip-path:url(#SVGID_00000101103995486555179170000005008829813075041463_);fill:#61A1C1;}
</style>
<g id="Layer_1_00000052073861686224272820000008403086669464098985_">
	<g>
		<g>
			<g>
				<defs>
					<rect id="SVGID_1_" x="242" y="263" width="278" height="260"/>
				</defs>
				<clipPath id="SVGID_00000121981636350026572460000017745555715432628380_">
					<use xlink:href="#SVGID_1_"  style="overflow:visible;"/>
				</clipPath>
			</g>
			<g>
				<defs>
					<rect id="SVGID_00000138537172447636572430000003630791580418018466_" x="242" y="263" width="278" height="260"/>
				</defs>
				<clipPath id="SVGID_00000052805695930497644230000004692278862314176411_">
					<use xlink:href="#SVGID_00000138537172447636572430000003630791580418018466_"  style="overflow:visible;"/>
				</clipPath>
				<g style="clip-path:url(#SVGID_00000052805695930497644230000004692278862314176411_);">
					<g>
						<defs>
							<rect id="SVGID_00000139274325574195835310000009774349276172593566_" x="242" y="263" width="278" height="260"/>
						</defs>
						<clipPath id="SVGID_00000099655785556451544340000012029161471105096114_">
							<use xlink:href="#SVGID_00000139274325574195835310000009774349276172593566_"  style="overflow:visible;"/>
						</clipPath>
						<path style="clip-path:url(#SVGID_00000099655785556451544340000012029161471105096114_);fill:#062C4C;" d="M425.3,385.7
							l-101.8-95.2c-0.7-0.6-1.7-0.6-2.4,0l-39.8,37.2c-0.7,0.6-0.7,1.6,0,2.3l61,57.1l-61.1,61.3c-0.6,0.6-0.6,1.7,0.1,2.3
							l41.1,35.8c0.7,0.6,1.8,0.6,2.4-0.1l63.1-63.4l37.4-35C425.9,387.4,425.9,386.4,425.3,385.7"/>
					</g>
					<g>
						<defs>
							<rect id="SVGID_00000101074351989085581840000007884602687520717748_" x="242" y="263" width="278" height="260"/>
						</defs>
						<clipPath id="SVGID_00000082345172680459234590000000602985175158335912_">
							<use xlink:href="#SVGID_00000101074351989085581840000007884602687520717748_"  style="overflow:visible;"/>
						</clipPath>
						<path style="clip-path:url(#SVGID_00000082345172680459234590000000602985175158335912_);fill:#E6002F;" d="M426.9,374.7
							L386.7,337c-0.7-0.6-0.7-1.6,0-2.3l39.8-37.2c0.7-0.6,1.7-0.6,2.4,0l40.2,37.6c0.7,0.6,0.7,1.6,0,2.3l-39.8,37.2
							C428.7,375.3,427.6,375.3,426.9,374.7"/>
					</g>
					<g>
						<defs>
							<rect id="SVGID_00000039128134059237233230000012613397224991933568_" x="242" y="263" width="278" height="260"/>
						</defs>
						<clipPath id="SVGID_00000171708809692856843670000006866799286083714692_">
							<use xlink:href="#SVGID_00000039128134059237233230000012613397224991933568_"  style="overflow:visible;"/>
						</clipPath>
						<path style="clip-path:url(#SVGID_00000171708809692856843670000006866799286083714692_);fill:#61A1C1;" d="M426.8,476.8
							l-40.2-37.6c-0.7-0.6-0.7-1.6,0-2.3l39.8-37.2c0.7-0.6,1.7-0.6,2.4,0l40.2,37.6c0.7,0.6,0.7,1.6,0,2.3l-39.8,37.2
							C428.6,477.5,427.5,477.5,426.8,476.8"/>
					</g>
				</g>
			</g>
		</g>
	</g>
</g>
<g id="Layer_2_00000030483087919880015830000000057054214918343098_">
</g>
<g id="Layer_3">
</g>
</svg>
