<?xml version="1.0" standalone="no"?>
<!DOCTYPE svg PUBLIC "-//W3C//DTD SVG 20010904//EN"
 "http://www.w3.org/TR/2001/REC-SVG-20010904/DTD/svg10.dtd">
<svg version="1.0" xmlns="http://www.w3.org/2000/svg"
 width="260.000000pt" height="260.000000pt" viewBox="0 0 260.000000 260.000000"
 preserveAspectRatio="xMidYMid meet">
<metadata>
Created by potrace 1.14, written by Peter Selinger 2001-2017
</metadata>
<g transform="translate(0.000000,260.000000) scale(0.100000,-0.100000)"
fill="#000000" stroke="none">
<path d="M925 2351 c-3 -5 -7 -22 -9 -38 -3 -15 -12 -48 -21 -72 -17 -48 -14
-110 9 -165 18 -42 18 -93 0 -135 -24 -57 -27 -97 -9 -115 28 -28 42 -19 51
32 3 15 11 44 19 65 21 52 20 113 0 172 -20 56 -21 98 -4 141 20 51 27 91 17
108 -10 17 -43 22 -53 7z"/>
<path d="M1196 2348 c-2 -7 -13 -44 -25 -83 -26 -86 -26 -106 -1 -186 22 -67
21 -88 -4 -158 -21 -57 -20 -88 2 -100 24 -13 42 0 48 35 2 16 12 47 20 68 19
48 16 125 -6 186 -18 48 -17 104 1 126 6 8 12 37 13 66 1 48 -1 53 -22 56 -12
2 -24 -2 -26 -10z"/>
<path d="M1465 2350 c-3 -5 -8 -23 -11 -38 -3 -15 -11 -44 -19 -65 -19 -47
-19 -95 -1 -149 25 -72 26 -97 5 -160 -22 -69 -24 -99 -8 -115 14 -14 49 -5
49 13 0 8 0 16 0 19 0 3 9 29 20 57 25 66 25 123 1 185 -21 55 -20 94 4 157
22 57 17 100 -12 104 -11 2 -24 -2 -28 -8z"/>
<path d="M422 1702 c-17 -12 -19 -472 -1 -562 26 -137 97 -274 194 -374 57
-59 172 -146 194 -146 5 0 12 -4 15 -9 4 -6 -130 -9 -330 -10 -267 0 -339 -2
-346 -13 -12 -18 -1 -81 20 -120 10 -18 40 -46 67 -63 l48 -30 916 1 c863 0
918 1 951 18 49 26 69 45 91 88 21 41 25 103 8 113 -6 4 -162 7 -347 6 l-336
0 68 40 c66 40 184 147 223 203 l19 28 205 2 c225 2 248 7 310 70 62 62 64 73
64 281 0 175 -2 193 -22 230 -26 49 -57 79 -108 104 -33 16 -64 19 -179 20
-77 1 -142 4 -146 6 -4 2 -6 27 -5 55 1 40 -2 53 -16 61 -22 11 -1538 12
-1557 1z m1501 -61 c5 0 7 -112 5 -248 -4 -237 -5 -251 -30 -324 -80 -229
-256 -391 -488 -448 -71 -17 -109 -20 -230 -17 -156 3 -210 13 -307 57 -176
78 -309 227 -370 414 -24 75 -26 96 -30 313 -2 129 -2 239 0 246 3 8 187 11
723 10 396 -1 723 -2 727 -3z m377 -140 c82 -44 93 -75 95 -261 2 -194 -10
-234 -86 -279 -33 -19 -53 -22 -213 -24 -97 -1 -176 2 -176 6 0 4 7 23 14 42
l15 35 155 0 c149 0 156 1 183 24 l28 24 0 143 c1 79 -3 155 -7 169 -15 45
-43 54 -173 56 -66 2 -125 3 -130 3 -8 1 -13 69 -6 77 0 1 63 1 139 0 92 -1
145 -6 162 -15z m-55 -276 l0 -140 -135 0 c-151 0 -139 -7 -124 75 4 19 8 73
9 120 2 47 3 86 4 88 1 1 56 1 124 0 l122 -3 0 -140z m-55 -692 c0 -20 -27
-58 -52 -73 -32 -20 -51 -20 -931 -20 -990 0 -950 -3 -982 61 -8 15 -15 30
-15 31 0 2 445 4 990 3 544 0 990 -1 990 -2z"/>
<path d="M949 1526 c-30 -29 -67 -67 -84 -85 l-29 -31 123 -124 124 -124 -29
-29 c-46 -46 -209 -224 -212 -232 -2 -7 131 -140 156 -155 9 -5 23 2 40 22 63
70 281 299 325 341 26 25 47 49 47 53 0 4 -92 100 -204 213 l-204 205 -53 -54z"/>
<path d="M1338 1468 c-43 -44 -78 -83 -78 -87 0 -9 154 -161 164 -161 4 0 43
36 87 80 l79 80 -83 85 c-45 47 -85 85 -87 84 -3 0 -40 -37 -82 -81z"/>
<path d="M1336 1031 c-91 -91 -92 -81 14 -186 l70 -69 85 84 85 85 -82 82
c-46 46 -85 83 -88 83 -3 0 -41 -35 -84 -79z"/>
</g>
</svg>
